<svg width="57" height="57" viewBox="0 0 57 57" fill="none" xmlns="http://www.w3.org/2000/svg">
<path d="M48.554 8.3306C43.182 2.95844 36.0394 0 28.4423 0C20.8452 0 13.7026 2.95844 8.3306 8.3306C2.95844 13.7026 0 20.8452 0 28.4423C0 36.0394 2.95844 43.182 8.3306 48.554C13.7026 53.9262 20.8452 56.8846 28.4423 56.8846C36.0394 56.8846 43.182 53.9262 48.554 48.554C53.9261 43.1819 56.8846 36.0394 56.8846 28.4423C56.8846 20.8452 53.9262 13.7026 48.554 8.3306ZM28.4423 55.0883C13.7496 55.0883 1.79631 43.135 1.79631 28.4423C1.79631 13.7496 13.7496 1.79631 28.4423 1.79631C43.135 1.79631 55.0883 13.7496 55.0883 28.4423C55.0883 43.135 43.135 55.0883 28.4423 55.0883Z" fill="#BF7691"/>
<path d="M37.8474 12.1636H19.0396C15.2487 12.1636 12.1648 15.2476 12.1648 19.0384V37.8464C12.1648 41.637 15.2488 44.7211 19.0396 44.7211H37.8476C41.6382 44.7211 44.7223 41.637 44.7223 37.8463V19.0384C44.7222 15.2475 41.6382 12.1636 37.8474 12.1636ZM43.0668 37.8462C43.0668 40.7241 40.7253 43.0656 37.8474 43.0656H19.0396C16.1616 43.0656 13.8202 40.7241 13.8202 37.8462V19.0384C13.8202 16.1604 16.1616 13.819 19.0396 13.819H37.8476C40.7254 13.819 43.0669 16.1604 43.0669 19.0384V37.8462H43.0668Z" fill="#BF7691"/>
<path d="M37.0927 28.0637C36.8479 23.7088 33.3041 20.2054 28.9468 20.0089C23.9187 19.7822 19.7795 23.9234 20.0091 28.9521C20.2083 33.3098 23.7146 36.8519 28.07 37.0931C29.908 37.195 31.6292 36.7115 33.0669 35.8138C33.5147 35.5342 33.5877 34.9114 33.2144 34.5382C33.2104 34.5342 33.2065 34.5303 33.2026 34.5264C32.9306 34.2542 32.5086 34.2132 32.1817 34.4163C31.1076 35.0838 29.8378 35.4649 28.4795 35.4507C24.6446 35.4103 21.5503 32.1902 21.6583 28.3565C21.7669 24.4984 25.0591 21.4227 28.9952 21.6693C32.3869 21.8819 35.1477 24.5864 35.4271 27.9733C35.5409 29.353 35.2442 30.6565 34.648 31.7778C34.4773 32.0989 34.5299 32.4926 34.787 32.7497C34.7912 32.7539 34.7955 32.7582 34.7997 32.7624C35.186 33.1488 35.8394 33.0579 36.0975 32.5765C36.8124 31.2428 37.1847 29.6996 37.0927 28.0637Z" fill="#BF7691"/>
<path d="M37.2725 20.7168C38.4915 20.7168 39.4798 19.7286 39.4798 18.5095C39.4798 17.2905 38.4915 16.3022 37.2725 16.3022C36.0534 16.3022 35.0652 17.2905 35.0652 18.5095C35.0652 19.7286 36.0534 20.7168 37.2725 20.7168Z" fill="#BF7691"/>
</svg>
