<svg width="58" height="57" viewBox="0 0 58 57" fill="none" xmlns="http://www.w3.org/2000/svg">
<path d="M49.3233 8.44583C43.9513 3.07368 36.8087 0.115234 29.2116 0.115234C21.6145 0.115234 14.4719 3.07368 9.09988 8.44583C3.72773 13.8179 0.769287 20.9604 0.769287 28.5575C0.769287 36.1546 3.72773 43.2972 9.09988 48.6693C14.4719 54.0414 21.6145 56.9999 29.2116 56.9999C36.8087 56.9999 43.9513 54.0414 49.3233 48.6693C54.6954 43.2971 57.6539 36.1546 57.6539 28.5575C57.6539 20.9604 54.6955 13.8179 49.3233 8.44583ZM29.2116 55.2035C14.5189 55.2035 2.5656 43.2502 2.5656 28.5575C2.5656 13.8649 14.5189 1.91154 29.2116 1.91154C43.9043 1.91154 55.8576 13.8649 55.8576 28.5575C55.8576 43.2502 43.9043 55.2035 29.2116 55.2035Z" fill="#BF7691"/>
<path d="M44.1391 12.5508C43.885 12.3593 43.5435 12.3307 43.2609 12.4769L11.2552 29.0315C10.9785 29.1745 10.8056 29.4609 10.8076 29.7724C10.8097 30.0838 10.9865 30.3678 11.2652 30.5071L19.6369 34.6928V42.9869C19.6369 43.204 19.7108 43.4188 19.8601 43.5763C20.0254 43.7507 20.245 43.8381 20.4647 43.8381C20.6032 43.8381 20.7416 43.8035 20.8668 43.7339L30.4447 38.4129L37.7754 41.5546C37.9314 41.6214 38.104 41.6491 38.2709 41.618C38.6144 41.5538 38.8698 41.2906 38.9349 40.9655L40.7896 31.6915C40.892 31.1792 40.5003 30.7014 39.9779 30.7014C39.5833 30.7012 39.2437 30.9796 39.1663 31.3665L37.5115 39.6403L30.7236 36.7312C30.4884 36.6304 30.2195 36.6442 29.9955 36.7684L21.2925 41.6035V34.1811C21.2925 33.8676 21.1153 33.5811 20.8349 33.4408L13.4613 29.7541L42.4917 14.7383L39.9724 27.3345C39.87 27.8468 40.2617 28.3246 40.7841 28.3246C41.1786 28.3246 41.5183 28.046 41.5959 27.6592L44.4528 13.3742C44.5152 13.0623 44.3932 12.7422 44.1391 12.5508Z" fill="#BF7691"/>
<path d="M38.7733 19.3206C38.5131 18.9913 38.0475 18.9086 37.6899 19.1288L23.3426 27.958C23.0978 28.1086 22.9487 28.3755 22.9487 28.6629V37.4921C22.9486 37.8761 23.2126 38.2095 23.5861 38.2977C23.6497 38.3128 23.7135 38.32 23.7765 38.32C24.0844 38.32 24.3742 38.1474 24.5166 37.8624L27.7675 31.3607L38.709 20.4191C39.0058 20.1222 39.0335 19.6501 38.7733 19.3206ZM26.5019 30.2849C26.4392 30.3477 26.3867 30.4204 26.347 30.5L24.6042 33.9856V29.1254L32.5532 24.2336L26.5019 30.2849Z" fill="#BF7691"/>
</svg>
