<svg width="58" height="57" viewBox="0 0 58 57" fill="none" xmlns="http://www.w3.org/2000/svg">
<path d="M48.9385 8.3306C43.5665 2.95844 36.4239 0 28.8268 0C21.2297 0 14.0872 2.95844 8.71523 8.3306C3.34297 13.7026 0.384521 20.8452 0.384521 28.4423C0.384521 36.0394 3.34297 43.182 8.71523 48.554C14.0872 53.9262 21.2297 56.8846 28.8268 56.8846C36.4239 56.8846 43.5665 53.9262 48.9385 48.554C54.3106 43.1819 57.2691 36.0394 57.2691 28.4423C57.2691 20.8452 54.3107 13.7026 48.9385 8.3306ZM28.8268 55.0883C14.1342 55.0883 2.18083 43.135 2.18083 28.4423C2.18083 13.7496 14.1342 1.79631 28.8268 1.79631C43.5195 1.79631 55.4728 13.7496 55.4728 28.4423C55.4728 43.135 43.5195 55.0883 28.8268 55.0883Z" fill="#BF7691"/>
<path d="M47.5615 16.7228C47.3652 15.3781 46.2811 14.3316 44.9252 14.1781C34.2432 12.9679 23.4108 12.968 12.7289 14.1781C11.3729 14.3317 10.2889 15.3781 10.0924 16.7229C8.95747 24.4986 8.95747 32.3839 10.0924 40.1598C10.2888 41.5045 11.3729 42.551 12.7288 42.7045C18.0699 43.3096 23.4483 43.6123 28.8269 43.6123C31.1166 43.6123 33.4062 43.5568 35.6928 43.4469C36.1333 43.4257 36.4792 43.0606 36.4792 42.6196C36.4792 42.1462 36.0827 41.7709 35.6099 41.7935C28.0412 42.1563 20.4403 41.9122 12.915 41.0595C12.3055 40.9905 11.8182 40.5221 11.7306 39.9205C10.6187 32.3034 10.6187 24.579 11.7305 16.962C11.8183 16.3604 12.3055 15.892 12.9151 15.823C18.1942 15.225 23.5105 14.9259 28.8269 14.9259C34.1434 14.9259 39.4597 15.2249 44.7389 15.823C45.3484 15.892 45.8357 16.3605 45.9233 16.962C47.0352 24.5791 47.0352 32.3035 45.9234 39.9205C45.8356 40.5222 45.3484 40.9905 44.7389 41.0595C44.7389 41.0595 44.7389 41.0595 44.7388 41.0595C43.0367 41.2523 41.3305 41.414 39.6218 41.5445C39.1899 41.5775 38.8557 41.936 38.8557 42.3691V42.3699C38.8557 42.8509 39.2646 43.2322 39.744 43.1955C41.4741 43.0634 43.2015 42.8996 44.9251 42.7044C46.2811 42.5508 47.365 41.5044 47.5615 40.1596C48.6965 32.384 48.6965 24.4986 47.5615 16.7228Z" fill="#BF7691"/>
<path d="M38.0409 27.7101L23.6935 20.1741C23.437 20.0393 23.1286 20.0485 22.8806 20.1985C22.6325 20.3484 22.481 20.617 22.481 20.9069V35.9788C22.481 36.2687 22.6325 36.5374 22.8806 36.6873C23.0119 36.7666 23.1601 36.8066 23.3087 36.8066C23.4406 36.8066 23.5728 36.775 23.6935 36.7116L38.0409 29.1756C38.3132 29.0326 38.4838 28.7504 38.4838 28.4428C38.4838 28.1352 38.3132 27.8532 38.0409 27.7101ZM24.1364 34.6092V22.2767L35.876 28.4429L24.1364 34.6092Z" fill="#BF7691"/>
</svg>
